<?xml version="1.0" encoding="UTF-8"?>
<svg id="a" data-name="Layer 1" xmlns="http://www.w3.org/2000/svg" viewBox="0 0 200.12 200.12">
  <g fill="#ffffff">
    <path d="M138.68,40.5c-3.86,0-6.98-3.13-6.98-6.98s3.13-6.98,6.98-6.98h27.92c3.86,0,6.98,3.13,6.98,6.98v27.92c0,3.86-3.13,6.98-6.98,6.98s-6.98-3.13-6.98-6.98v-11.07l-20.66,20.66c-2.73,2.73-7.15,2.73-9.87,0s-2.73-7.15,0-9.87l20.66-20.66h-11.07Z"/>
    <path d="M71.04,129.09c2.73,2.73,2.73,7.15,0,9.87l-20.66,20.66h11.07c3.86,0,6.98,3.13,6.98,6.98s-3.13,6.98-6.98,6.98h-27.92c-3.86,0-6.98-3.13-6.98-6.98v-27.92c0-3.86,3.13-6.98,6.98-6.98s6.98,3.13,6.98,6.98v11.07l20.66-20.66c2.73-2.73,7.15-2.73,9.87,0Z"/>
    <path d="M61.45,40.5c3.86,0,6.98-3.13,6.98-6.98s-3.13-6.98-6.98-6.98h-27.92c-3.86,0-6.98,3.13-6.98,6.98v27.92c0,3.86,3.13,6.98,6.98,6.98s6.98-3.13,6.98-6.98v-11.07l20.66,20.66c2.73,2.73,7.15,2.73,9.87,0s2.73-7.15,0-9.87l-20.66-20.66h11.07Z"/>
    <text transform="translate(83.99 109.07)" style="font-family: TimesNewRomanPS-BoldItalicMT, &apos;Times New Roman&apos;; font-size: 80px; font-style: italic; font-weight: 700;"><tspan x="0" y="0">f</tspan></text>
    <path d="M129.09,129.09c-2.73,2.73-2.73,7.15,0,9.87l20.66,20.66h-11.07c-3.86,0-6.98,3.13-6.98,6.98s3.13,6.98,6.98,6.98h27.92c3.86,0,6.98-3.13,6.98-6.98v-27.92c0-3.86-3.13-6.98-6.98-6.98s-6.98,3.13-6.98,6.98v11.07l-20.66-20.66c-2.73-2.73-7.15-2.73-9.87,0Z"/>
    <path d="M99.53,0c-21.49,0-38.33,0-51.46,1.77-13.45,1.81-24.06,5.58-32.39,13.91S3.57,34.62,1.77,48.06C0,61.2,0,78.04,0,99.53v1.07c0,21.49,0,38.32,1.77,51.46,1.81,13.45,5.58,24.06,13.91,32.39,8.33,8.33,18.94,12.1,32.39,13.91,13.14,1.77,29.98,1.77,51.46,1.77h1.07c21.49,0,38.32,0,51.46-1.77,13.45-1.81,24.06-5.58,32.39-13.91,8.33-8.33,12.1-18.94,13.91-32.39,1.77-13.14,1.77-29.98,1.77-51.46v-1.07c0-21.49,0-38.33-1.77-51.46-1.81-13.45-5.58-24.06-13.91-32.39-8.33-8.33-18.94-12.1-32.39-13.91C138.92,0,122.08,0,100.6,0h-1.07ZM25.55,25.55c5.3-5.3,12.48-8.35,24.38-9.95,12.1-1.63,28-1.64,50.14-1.64s38.04.01,50.14,1.64c11.9,1.6,19.07,4.64,24.38,9.95,5.3,5.3,8.35,12.48,9.94,24.38,1.63,12.1,1.64,28,1.64,50.14s-.01,38.04-1.64,50.14c-1.6,11.9-4.64,19.07-9.94,24.38s-12.48,8.35-24.38,9.94c-12.1,1.63-28,1.64-50.14,1.64s-38.04-.01-50.14-1.64c-11.9-1.6-19.07-4.64-24.38-9.94-5.3-5.3-8.35-12.48-9.95-24.38-1.63-12.1-1.64-28-1.64-50.14s.01-38.04,1.64-50.14c1.6-11.9,4.64-19.07,9.95-24.38Z" style="fill-rule: evenodd;"/>
  </g>
</svg>
