<?xml version="1.0" encoding="UTF-8"?>
<svg id="a" data-name="Layer 1" xmlns="http://www.w3.org/2000/svg" viewBox="0 0 1014 1014">
  <rect x="7" y="7" width="1000" height="1000" rx="14.31" ry="14.31" style="fill: #fff; stroke: #c1272d; stroke-miterlimit: 10; stroke-width: 14px;"/>
  <path d="M833.18,106.26c-12.85,0-23.27-10.42-23.27-23.27s10.42-23.27,23.27-23.27h93.06c12.85,0,23.27,10.42,23.27,23.27v93.06c0,12.85-10.42,23.27-23.27,23.27s-23.27-10.42-23.27-23.27v-36.89l-68.86,68.86c-9.09,9.09-23.81,9.09-32.9,0-9.09-9.09-9.09-23.81,0-32.9l68.85-68.86h-36.89Z"/>
  <path d="M208.66,800.59c9.09,9.09,9.09,23.81,0,32.9l-68.86,68.86h36.89c12.85,0,23.27,10.42,23.27,23.27s-10.42,23.27-23.27,23.27h-93.06c-12.85,0-23.27-10.42-23.27-23.27v-93.06c0-12.85,10.42-23.27,23.27-23.27s23.27,10.42,23.27,23.27v36.89l68.86-68.85c9.09-9.09,23.82-9.09,32.9,0Z"/>
  <path d="M177.11,106.67c12.85,0,23.27-10.42,23.27-23.27s-10.42-23.27-23.27-23.27h-93.06c-12.85,0-23.27,10.42-23.27,23.27v93.06c0,12.85,10.42,23.27,23.27,23.27s23.27-10.42,23.27-23.27v-36.89l68.86,68.86c9.09,9.09,23.82,9.09,32.9,0,9.09-9.09,9.09-23.81,0-32.9l-68.86-68.86h36.89Z"/>
  <text transform="translate(192.61 760.71)" style="fill: #009245; font-family: TimesNewRomanPS-BoldItalicMT, &apos;Times New Roman&apos;; font-size: 800px; font-style: italic; font-weight: 700; letter-spacing: -.02em;"><tspan x="0" y="0">F</tspan></text>
  <path d="M801.43,800.79c-9.09,9.09-9.09,23.81,0,32.9l68.85,68.86h-36.89c-12.85,0-23.27,10.42-23.27,23.27s10.42,23.27,23.27,23.27h93.06c12.85,0,23.27-10.42,23.27-23.27v-93.06c0-12.85-10.42-23.27-23.27-23.27s-23.27,10.42-23.27,23.27v36.89l-68.86-68.85c-9.09-9.09-23.81-9.09-32.9,0Z"/>
</svg>